{
  "accessors": [
    {
      "name": "zhuzi1_1_0_positions",
      "componentType": 5126,
      "count": 823,
      "min": [
        -1424.247802734375,
        -2210,
        -1423.846923828125
      ],
      "max": [
        1434.5404052734375,
        2190,
        1432.2833251953125
      ],
      "type": "VEC3",
      "bufferView": 0,
      "byteOffset": 0
    },
    {
      "name": "zhuzi1_1_0_normals",
      "componentType": 5126,
      "count": 823,
      "min": [
        -0.9983955025672913,
        -0.9997685551643372,
        -0.9957131743431091
      ],
      "max": [
        0.9994389414787292,
        0.9995238184928894,
        0.9978037476539612
      ],
      "type": "VEC3",
      "bufferView": 1,
      "byteOffset": 0
    },
    {
      "name": "zhuzi1_1_0_texcoords",
      "componentType": 5126,
      "count": 823,
      "min": [
        -0.012500000186264515,
        0
      ],
      "max": [
        0.987500011920929,
        1
      ],
      "type": "VEC2",
      "bufferView": 2,
      "byteOffset": 0
    },
    {
      "name": "zhuzi1_1_0_indices",
      "componentType": 5123,
      "count": 4326,
      "min": [
        0
      ],
      "max": [
        822
      ],
      "type": "SCALAR",
      "bufferView": 3,
      "byteOffset": 0
    },
    {
      "name": "Circle004_1_0_positions",
      "componentType": 5126,
      "count": 338,
      "min": [
        -385.1659851074219,
        -2250,
        -384.0353088378906
      ],
      "max": [
        394.8340148925781,
        -2150,
        395.9646911621094
      ],
      "type": "VEC3",
      "bufferView": 0,
      "byteOffset": 9876
    },
    {
      "name": "Circle004_1_0_normals",
      "componentType": 5126,
      "count": 338,
      "min": [
        -0.715506374835968,
        -0.6991106867790222,
        -0.715506374835968
      ],
      "max": [
        0.715506374835968,
        0.6991106867790222,
        0.715506374835968
      ],
      "type": "VEC3",
      "bufferView": 1,
      "byteOffset": 9876
    },
    {
      "name": "Circle004_1_0_texcoords",
      "componentType": 5126,
      "count": 338,
      "min": [
        0,
        0
      ],
      "max": [
        1,
        1
      ],
      "type": "VEC2",
      "bufferView": 2,
      "byteOffset": 6584
    },
    {
      "name": "Circle004_1_0_indices",
      "componentType": 5123,
      "count": 996,
      "min": [
        0
      ],
      "max": [
        337
      ],
      "type": "SCALAR",
      "bufferView": 3,
      "byteOffset": 8652
    },
    {
      "name": "Circle639_1_0_positions",
      "componentType": 5126,
      "count": 496,
      "min": [
        -1175.166015625,
        -1130,
        -1174.0352783203125
      ],
      "max": [
        1184.833984375,
        -1090,
        1185.9647216796875
      ],
      "type": "VEC3",
      "bufferView": 0,
      "byteOffset": 13932
    },
    {
      "name": "Circle639_1_0_normals",
      "componentType": 5126,
      "count": 496,
      "min": [
        -0.7128828763961792,
        -0.7130913138389587,
        -0.7128828763961792
      ],
      "max": [
        0.7128828763961792,
        0.7130913138389587,
        0.7128828763961792
      ],
      "type": "VEC3",
      "bufferView": 1,
      "byteOffset": 13932
    },
    {
      "name": "Circle639_1_0_texcoords",
      "componentType": 5126,
      "count": 496,
      "min": [
        0,
        1
      ],
      "max": [
        0,
        1
      ],
      "type": "VEC2",
      "bufferView": 2,
      "byteOffset": 9288
    },
    {
      "name": "Circle639_1_0_indices",
      "componentType": 5123,
      "count": 2976,
      "min": [
        0
      ],
      "max": [
        495
      ],
      "type": "SCALAR",
      "bufferView": 3,
      "byteOffset": 10644
    },
    {
      "name": "zhuzi2_1_0_positions",
      "componentType": 5126,
      "count": 109,
      "min": [
        -1879.025390625,
        2187.5,
        -1880.13720703125
      ],
      "max": [
        1879.0263671875,
        2250,
        1880.137451171875
      ],
      "type": "VEC3",
      "bufferView": 0,
      "byteOffset": 19884
    },
    {
      "name": "zhuzi2_1_0_normals",
      "componentType": 5126,
      "count": 109,
      "min": [
        -0.7903376817703247,
        -0.8194996118545532,
        -0.7552778720855713
      ],
      "max": [
        0.7459194660186768,
        0.8483884930610657,
        0.7392721772193909
      ],
      "type": "VEC3",
      "bufferView": 1,
      "byteOffset": 19884
    },
    {
      "name": "zhuzi2_1_0_texcoords",
      "componentType": 5126,
      "count": 109,
      "min": [
        0,
        1
      ],
      "max": [
        0,
        1
      ],
      "type": "VEC2",
      "bufferView": 2,
      "byteOffset": 13256
    },
    {
      "name": "zhuzi2_1_0_indices",
      "componentType": 5123,
      "count": 654,
      "min": [
        0
      ],
      "max": [
        108
      ],
      "type": "SCALAR",
      "bufferView": 3,
      "byteOffset": 16596
    },
    {
      "name": "Circle653_1_0_positions",
      "componentType": 5126,
      "count": 1851,
      "min": [
        -1196.6220703125,
        -1490.003662109375,
        -1195.4913330078125
      ],
      "max": [
        1206.2900390625,
        -680,
        1207.4207763671875
      ],
      "type": "VEC3",
      "bufferView": 0,
      "byteOffset": 21192
    },
    {
      "name": "Circle653_1_0_normals",
      "componentType": 5126,
      "count": 1851,
      "min": [
        -0.9975439310073853,
        -0.9818340539932251,
        -0.9938000440597534
      ],
      "max": [
        0.9974639415740967,
        0.9968881607055664,
        0.999872088432312
      ],
      "type": "VEC3",
      "bufferView": 1,
      "byteOffset": 21192
    },
    {
      "name": "Circle653_1_0_texcoords",
      "componentType": 5126,
      "count": 1851,
      "min": [
        0,
        1
      ],
      "max": [
        0,
        1
      ],
      "type": "VEC2",
      "bufferView": 2,
      "byteOffset": 14128
    },
    {
      "name": "Circle653_1_0_indices",
      "componentType": 5123,
      "count": 10977,
      "min": [
        0
      ],
      "max": [
        1850
      ],
      "type": "SCALAR",
      "bufferView": 3,
      "byteOffset": 17904
    },
    {
      "name": "grid005_1_0_positions",
      "componentType": 5126,
      "count": 19,
      "min": [
        -634.0078735351562,
        -974.9379272460938,
        -557.35498046875
      ],
      "max": [
        -300.5151062011719,
        -775.91357421875,
        -177.21519470214844
      ],
      "type": "VEC3",
      "bufferView": 0,
      "byteOffset": 43404
    },
    {
      "name": "grid005_1_0_normals",
      "componentType": 5126,
      "count": 19,
      "min": [
        -0.8890998959541321,
        -0.9999756217002869,
        -0.8165375590324402
      ],
      "max": [
        0.02979997545480728,
        0.9993991851806641,
        0.017699984833598137
      ],
      "type": "VEC3",
      "bufferView": 1,
      "byteOffset": 43404
    },
    {
      "name": "grid005_1_0_texcoords",
      "componentType": 5126,
      "count": 19,
      "min": [
        0,
        0
      ],
      "max": [
        1,
        1
      ],
      "type": "VEC2",
      "bufferView": 2,
      "byteOffset": 28936
    },
    {
      "name": "grid005_1_0_indices",
      "componentType": 5123,
      "count": 51,
      "min": [
        0
      ],
      "max": [
        18
      ],
      "type": "SCALAR",
      "bufferView": 3,
      "byteOffset": 39860
    },
    {
      "name": "grid002_1_0_positions",
      "componentType": 5126,
      "count": 28,
      "min": [
        -186.8415069580078,
        -974.8438720703125,
        522.9072875976562
      ],
      "max": [
        229.1737060546875,
        -775.9376220703125,
        686.4600830078125
      ],
      "type": "VEC3",
      "bufferView": 0,
      "byteOffset": 43632
    },
    {
      "name": "grid002_1_0_normals",
      "componentType": 5126,
      "count": 28,
      "min": [
        -0.4663141071796417,
        -0.9999761581420898,
        -0.4522804915904999
      ],
      "max": [
        0.5043084621429443,
        0.99998539686203,
        0.9553908705711365
      ],
      "type": "VEC3",
      "bufferView": 1,
      "byteOffset": 43632
    },
    {
      "name": "grid002_1_0_texcoords",
      "componentType": 5126,
      "count": 28,
      "min": [
        0,
        0
      ],
      "max": [
        1,
        1
      ],
      "type": "VEC2",
      "bufferView": 2,
      "byteOffset": 29088
    },
    {
      "name": "grid002_1_0_indices",
      "componentType": 5123,
      "count": 78,
      "min": [
        0
      ],
      "max": [
        27
      ],
      "type": "SCALAR",
      "bufferView": 3,
      "byteOffset": 39964
    },
    {
      "name": "grid003_1_0_positions",
      "componentType": 5126,
      "count": 19,
      "min": [
        475.8030090332031,
        -975.0410766601562,
        -83.7428970336914
      ],
      "max": [
        684.0330810546875,
        -775.8864135742188,
        352.67449951171875
      ],
      "type": "VEC3",
      "bufferView": 0,
      "byteOffset": 43968
    },
    {
      "name": "grid003_1_0_normals",
      "componentType": 5126,
      "count": 19,
      "min": [
        -0.03400062769651413,
        -0.9999759197235107,
        -0.3573053777217865
      ],
      "max": [
        0.9972347617149353,
        0.9994184374809265,
        0.6486133337020874
      ],
      "type": "VEC3",
      "bufferView": 1,
      "byteOffset": 43968
    },
    {
      "name": "grid003_1_0_texcoords",
      "componentType": 5126,
      "count": 19,
      "min": [
        0,
        0
      ],
      "max": [
        1,
        1
      ],
      "type": "VEC2",
      "bufferView": 2,
      "byteOffset": 29312
    },
    {
      "name": "grid003_1_0_indices",
      "componentType": 5123,
      "count": 51,
      "min": [
        0
      ],
      "max": [
        18
      ],
      "type": "SCALAR",
      "bufferView": 3,
      "byteOffset": 40120
    },
    {
      "name": "grid004_1_0_positions",
      "componentType": 5126,
      "count": 21,
      "min": [
        21.28700065612793,
        -975.2075805664062,
        -672.6746215820312
      ],
      "max": [
        458.7966003417969,
        -775.8397216796875,
        -401.08990478515625
      ],
      "type": "VEC3",
      "bufferView": 0,
      "byteOffset": 44196
    },
    {
      "name": "grid004_1_0_normals",
      "componentType": 5126,
      "count": 21,
      "min": [
        -0.16370756924152374,
        -0.9999755024909973,
        -0.9946616888046265
      ],
      "max": [
        0.7532881498336792,
        0.9993185997009277,
        0.43011119961738586
      ],
      "type": "VEC3",
      "bufferView": 1,
      "byteOffset": 44196
    },
    {
      "name": "grid004_1_0_texcoords",
      "componentType": 5126,
      "count": 21,
      "min": [
        0,
        0
      ],
      "max": [
        1,
        1
      ],
      "type": "VEC2",
      "bufferView": 2,
      "byteOffset": 29464
    },
    {
      "name": "grid004_1_0_indices",
      "componentType": 5123,
      "count": 57,
      "min": [
        0
      ],
      "max": [
        20
      ],
      "type": "SCALAR",
      "bufferView": 3,
      "byteOffset": 40224
    },
    {
      "name": "grid006_1_0_positions",
      "componentType": 5126,
      "count": 16,
      "min": [
        -654.09521484375,
        -974.5543823242188,
        135.42030334472656
      ],
      "max": [
        -383.8887023925781,
        -776.0040283203125,
        485.07550048828125
      ],
      "type": "VEC3",
      "bufferView": 0,
      "byteOffset": 44448
    },
    {
      "name": "grid006_1_0_normals",
      "componentType": 5126,
      "count": 16,
      "min": [
        -0.8407260179519653,
        -0.9999756217002869,
        -0.037799857556819916
      ],
      "max": [
        0.06759974360466003,
        0.9969962239265442,
        0.7394031286239624
      ],
      "type": "VEC3",
      "bufferView": 1,
      "byteOffset": 44448
    },
    {
      "name": "grid006_1_0_texcoords",
      "componentType": 5126,
      "count": 16,
      "min": [
        0,
        0
      ],
      "max": [
        1,
        1
      ],
      "type": "VEC2",
      "bufferView": 2,
      "byteOffset": 29632
    },
    {
      "name": "grid006_1_0_indices",
      "componentType": 5123,
      "count": 42,
      "min": [
        0
      ],
      "max": [
        15
      ],
      "type": "SCALAR",
      "bufferView": 3,
      "byteOffset": 40340
    },
    {
      "name": "Cylinder002_1_0_positions",
      "componentType": 5126,
      "count": 284,
      "min": [
        -928.3933715820312,
        -2249.99609375,
        -884.1962890625
      ],
      "max": [
        884.33447265625,
        -1274.392333984375,
        900.9923706054688
      ],
      "type": "VEC3",
      "bufferView": 0,
      "byteOffset": 44640
    },
    {
      "name": "Cylinder002_1_0_normals",
      "componentType": 5126,
      "count": 284,
      "min": [
        -1,
        -0.6701119542121887,
        -0.984815776348114
      ],
      "max": [
        1,
        0.7484013438224792,
        0.984815776348114
      ],
      "type": "VEC3",
      "bufferView": 1,
      "byteOffset": 44640
    },
    {
      "name": "Cylinder002_1_0_texcoords",
      "componentType": 5126,
      "count": 284,
      "min": [
        -0.027799999341368675,
        0
      ],
      "max": [
        0.9721999764442444,
        1
      ],
      "type": "VEC2",
      "bufferView": 2,
      "byteOffset": 29760
    },
    {
      "name": "Cylinder002_1_0_indices",
      "componentType": 5123,
      "count": 1284,
      "min": [
        0
      ],
      "max": [
        283
      ],
      "type": "SCALAR",
      "bufferView": 3,
      "byteOffset": 40424
    }
  ],
  "asset": {
    "generator": "obj2gltf",
    "version": "2.0"
  },
  "buffers": [
    {
      "name": "zhongyangyuanzhu",
      "byteLength": 1203152,
      "uri": "data:application/octet-stream;base64,"
    }
  ],
  "bufferViews": [
    {
      "name": "bufferView_0",
      "buffer": 0,
      "byteLength": 48048,
      "byteOffset": 0,
      "byteStride": 12,
      "target": 34962
    },
    {
      "name": "bufferView_1",
      "buffer": 0,
      "byteLength": 48048,
      "byteOffset": 48048,
      "byteStride": 12,
      "target": 34962
    },
    {
      "name": "bufferView_2",
      "buffer": 0,
      "byteLength": 32032,
      "byteOffset": 96096,
      "byteStride": 8,
      "target": 34962
    },
    {
      "name": "bufferView_3",
      "buffer": 0,
      "byteLength": 42992,
      "byteOffset": 128128,
      "target": 34963
    },
    {
      "buffer": 0,
      "byteOffset": 171120,
      "byteLength": 594175
    },
    {
      "buffer": 0,
      "byteOffset": 765295,
      "byteLength": 46777
    },
    {
      "buffer": 0,
      "byteOffset": 812072,
      "byteLength": 64636
    },
    {
      "buffer": 0,
      "byteOffset": 876708,
      "byteLength": 85111
    },
    {
      "buffer": 0,
      "byteOffset": 961819,
      "byteLength": 36259
    },
    {
      "buffer": 0,
      "byteOffset": 998078,
      "byteLength": 80788
    },
    {
      "buffer": 0,
      "byteOffset": 1078866,
      "byteLength": 124286
    }
  ],
  "images": [
    {
      "name": "erjinzhi",
      "mimeType": "image/png",
      "bufferView": 4
    },
    {
      "name": "huibaise",
      "mimeType": "image/png",
      "bufferView": 5
    },
    {
      "name": "qz1",
      "mimeType": "image/png",
      "bufferView": 6
    },
    {
      "name": "qz3",
      "mimeType": "image/png",
      "bufferView": 7
    },
    {
      "name": "qz4",
      "mimeType": "image/png",
      "bufferView": 8
    },
    {
      "name": "qz2",
      "mimeType": "image/png",
      "bufferView": 9
    },
    {
      "name": "qz5",
      "mimeType": "image/png",
      "bufferView": 10
    }
  ],
  "materials": [
    {
      "name": "zhuzi",
      "pbrMetallicRoughness": {
        "baseColorTexture": {
          "index": 0
        },
        "baseColorFactor": [
          1,
          1,
          1,
          1
        ],
        "metallicFactor": 0,
        "roughnessFactor": 0.99
      },
      "emissiveTexture": {
        "index": 0
      },
      "emissiveFactor": [
        1,
        1,
        1
      ],
      "alphaMode": "OPAQUE",
      "doubleSided": false
    },
    {
      "name": "wire_228214153",
      "pbrMetallicRoughness": {
        "baseColorFactor": [
          0.8941,
          0.8392,
          0.6,
          1
        ],
        "metallicFactor": 0,
        "roughnessFactor": 0.968
      },
      "emissiveFactor": [
        0,
        0,
        0
      ],
      "alphaMode": "OPAQUE",
      "doubleSided": false
    },
    {
      "name": "07___Default",
      "pbrMetallicRoughness": {
        "baseColorFactor": [
          1,
          1,
          1,
          1
        ],
        "metallicFactor": 0,
        "roughnessFactor": 0.99
      },
      "emissiveFactor": [
        1,
        1,
        1
      ],
      "alphaMode": "OPAQUE",
      "doubleSided": false
    },
    {
      "name": "Material__2100437356",
      "pbrMetallicRoughness": {
        "baseColorTexture": {
          "index": 1
        },
        "baseColorFactor": [
          1,
          1,
          1,
          1
        ],
        "metallicFactor": 0,
        "roughnessFactor": 0.99
      },
      "emissiveFactor": [
        0,
        0,
        0
      ],
      "alphaMode": "OPAQUE",
      "doubleSided": false
    },
    {
      "name": "Material__2100437351",
      "pbrMetallicRoughness": {
        "baseColorTexture": {
          "index": 2
        },
        "baseColorFactor": [
          1,
          1,
          1,
          1
        ],
        "metallicFactor": 0,
        "roughnessFactor": 0.99
      },
      "emissiveFactor": [
        0,
        0,
        0
      ],
      "alphaMode": "OPAQUE",
      "doubleSided": false
    },
    {
      "name": "Material__2100437353",
      "pbrMetallicRoughness": {
        "baseColorTexture": {
          "index": 3
        },
        "baseColorFactor": [
          1,
          1,
          1,
          1
        ],
        "metallicFactor": 0,
        "roughnessFactor": 0.99
      },
      "emissiveFactor": [
        0,
        0,
        0
      ],
      "alphaMode": "OPAQUE",
      "doubleSided": false
    },
    {
      "name": "Material__2100437354",
      "pbrMetallicRoughness": {
        "baseColorTexture": {
          "index": 4
        },
        "baseColorFactor": [
          1,
          1,
          1,
          1
        ],
        "metallicFactor": 0,
        "roughnessFactor": 0.99
      },
      "emissiveFactor": [
        0,
        0,
        0
      ],
      "alphaMode": "OPAQUE",
      "doubleSided": false
    },
    {
      "name": "Material__2100437355",
      "pbrMetallicRoughness": {
        "baseColorTexture": {
          "index": 5
        },
        "baseColorFactor": [
          1,
          1,
          1,
          1
        ],
        "metallicFactor": 0,
        "roughnessFactor": 0.99
      },
      "emissiveFactor": [
        0,
        0,
        0
      ],
      "alphaMode": "OPAQUE",
      "doubleSided": false
    },
    {
      "name": "Material__2100437352",
      "pbrMetallicRoughness": {
        "baseColorTexture": {
          "index": 6
        },
        "baseColorFactor": [
          1,
          1,
          1,
          1
        ],
        "metallicFactor": 0,
        "roughnessFactor": 0.99
      },
      "emissiveFactor": [
        0,
        0,
        0
      ],
      "alphaMode": "OPAQUE",
      "doubleSided": false
    },
    {
      "name": "Material__2100437371",
      "pbrMetallicRoughness": {
        "baseColorTexture": {
          "index": 1
        },
        "baseColorFactor": [
          1,
          1,
          1,
          1
        ],
        "metallicFactor": 0,
        "roughnessFactor": 0.99
      },
      "emissiveFactor": [
        0,
        0,
        0
      ],
      "alphaMode": "OPAQUE",
      "doubleSided": false
    }
  ],
  "meshes": [
    {
      "name": "zhuzi1_1",
      "primitives": [
        {
          "attributes": {
            "POSITION": 0,
            "NORMAL": 1,
            "TEXCOORD_0": 2
          },
          "indices": 3,
          "material": 0,
          "mode": 4
        }
      ]
    },
    {
      "name": "Circle004_1",
      "primitives": [
        {
          "attributes": {
            "POSITION": 4,
            "NORMAL": 5,
            "TEXCOORD_0": 6
          },
          "indices": 7,
          "material": 1,
          "mode": 4
        }
      ]
    },
    {
      "name": "Circle639_1",
      "primitives": [
        {
          "attributes": {
            "POSITION": 8,
            "NORMAL": 9,
            "TEXCOORD_0": 10
          },
          "indices": 11,
          "material": 1,
          "mode": 4
        }
      ]
    },
    {
      "name": "zhuzi2_1",
      "primitives": [
        {
          "attributes": {
            "POSITION": 12,
            "NORMAL": 13,
            "TEXCOORD_0": 14
          },
          "indices": 15,
          "material": 2,
          "mode": 4
        }
      ]
    },
    {
      "name": "Circle653_1",
      "primitives": [
        {
          "attributes": {
            "POSITION": 16,
            "NORMAL": 17,
            "TEXCOORD_0": 18
          },
          "indices": 19,
          "material": 3,
          "mode": 4
        }
      ]
    },
    {
      "name": "grid005_1",
      "primitives": [
        {
          "attributes": {
            "POSITION": 20,
            "NORMAL": 21,
            "TEXCOORD_0": 22
          },
          "indices": 23,
          "material": 4,
          "mode": 4
        }
      ]
    },
    {
      "name": "grid002_1",
      "primitives": [
        {
          "attributes": {
            "POSITION": 24,
            "NORMAL": 25,
            "TEXCOORD_0": 26
          },
          "indices": 27,
          "material": 5,
          "mode": 4
        }
      ]
    },
    {
      "name": "grid003_1",
      "primitives": [
        {
          "attributes": {
            "POSITION": 28,
            "NORMAL": 29,
            "TEXCOORD_0": 30
          },
          "indices": 31,
          "material": 6,
          "mode": 4
        }
      ]
    },
    {
      "name": "grid004_1",
      "primitives": [
        {
          "attributes": {
            "POSITION": 32,
            "NORMAL": 33,
            "TEXCOORD_0": 34
          },
          "indices": 35,
          "material": 7,
          "mode": 4
        }
      ]
    },
    {
      "name": "grid006_1",
      "primitives": [
        {
          "attributes": {
            "POSITION": 36,
            "NORMAL": 37,
            "TEXCOORD_0": 38
          },
          "indices": 39,
          "material": 8,
          "mode": 4
        }
      ]
    },
    {
      "name": "Cylinder002_1",
      "primitives": [
        {
          "attributes": {
            "POSITION": 40,
            "NORMAL": 41,
            "TEXCOORD_0": 42
          },
          "indices": 43,
          "material": 9,
          "mode": 4
        }
      ]
    }
  ],
  "nodes": [
    {
      "name": "zhuzi1",
      "mesh": 0
    },
    {
      "name": "Circle004",
      "mesh": 1
    },
    {
      "name": "Circle639",
      "mesh": 2
    },
    {
      "name": "zhuzi2",
      "mesh": 3
    },
    {
      "name": "Circle653",
      "mesh": 4
    },
    {
      "name": "grid005",
      "mesh": 5
    },
    {
      "name": "grid002",
      "mesh": 6
    },
    {
      "name": "grid003",
      "mesh": 7
    },
    {
      "name": "grid004",
      "mesh": 8
    },
    {
      "name": "grid006",
      "mesh": 9
    },
    {
      "name": "Cylinder002",
      "mesh": 10
    }
  ],
  "samplers": [
    {
      "magFilter": 9729,
      "minFilter": 9986,
      "wrapS": 10497,
      "wrapT": 10497
    }
  ],
  "scene": 0,
  "scenes": [
    {
      "nodes": [
        0,
        1,
        2,
        3,
        4,
        5,
        6,
        7,
        8,
        9,
        10
      ]
    }
  ],
  "textures": [
    {
      "name": "erjinzhi",
      "sampler": 0,
      "source": 0
    },
    {
      "name": "huibaise",
      "sampler": 0,
      "source": 1
    },
    {
      "name": "qz1",
      "sampler": 0,
      "source": 2
    },
    {
      "name": "qz3",
      "sampler": 0,
      "source": 3
    },
    {
      "name": "qz4",
      "sampler": 0,
      "source": 4
    },
    {
      "name": "qz2",
      "sampler": 0,
      "source": 5
    },
    {
      "name": "qz5",
      "sampler": 0,
      "source": 6
    }
  ]
}
